<?xml version="1.0" encoding="utf-8"?>
<!-- Generator: Adobe Illustrator 18.0.0, SVG Export Plug-In . SVG Version: 6.00 Build 0)  -->
<!DOCTYPE svg PUBLIC "-//W3C//DTD SVG 1.1//EN" "http://www.w3.org/Graphics/SVG/1.1/DTD/svg11.dtd">
<svg version="1.1" id="Layer_1" xmlns="http://www.w3.org/2000/svg" xmlns:xlink="http://www.w3.org/1999/xlink" x="0px" y="0px"
	 viewBox="85.6 0 418.5 841.9" enable-background="new 85.6 0 418.5 841.9" xml:space="preserve">
<title>2Asset 2</title>
<g>
	<g>
		<g>
			<path fill="#E65D56" d="M208.3,495.1v101.7h30.3v-71.1h28.4v86.5c-21.3,0-38.6,0-59,0c0,18.3,0,152.6,0,174.2c36,0,53.3,0,89.4,0
				V657.7h-30.1v98.1h-28.4V642.3h59c0-19.7,0-125.4,0-147.2h-30.6C246,495.1,228.7,495.1,208.3,495.1z"/>
			<path fill="#E65D56" d="M208.3,325.9h30.3v-67.3h28.4v82.7h-58.8c0,36.3,0,102.4,0,138.7c19.2,0,69.7,0,89.4,0
				c0-19.4,0-73.9,0-94.1h-30.3v63.8h-28.4v-78.9h59c0-22.5,0-121.8,0-142.2h-89.6C208.3,247.9,208.3,305.5,208.3,325.9z"/>
			<polygon fill="#E65D56" points="401.9,279.9 432.5,279.9 432.5,54 401.9,54 401.9,182.7 193.1,182.7 193.1,84.6 162.8,84.6 
				162.8,786.2 193.1,786.2 193.1,213.1 401.9,213.1 			"/>
			<polygon fill="#E65D56" points="313,571.5 357.4,571.5 357.4,755.9 313,755.9 313,786.2 432.5,786.2 432.5,755.9 387.9,755.9 
				387.9,571.5 432.5,571.5 432.5,540.9 313,540.9 			"/>
			<path fill="#E65D56" d="M313,295.1c0,42.9,0,187.7,0,230.6h119.7V295.1C397.2,295.1,348.4,295.1,313,295.1z M401.9,495.1h-58.5
				V325.4h58.5V495.1L401.9,495.1z"/>
		</g>
	</g>
	<path fill="#E65D56" d="M480.1-6.6h-17.1H132.2h-17.1h-13.3v854h13.3h17.1h330.6h17.1h13.3v-854H480.1z M132.2,816.8V23.7h330.6
		v793.1H132.2z"/>
</g>
</svg>
